<svg xmlns="http://www.w3.org/2000/svg" viewBox="0 0 1122 1122"><defs><style>.cls-1{fill:#aad4c8;}.cls-2{fill:#616e7d;}.cls-3{fill:#fff;}.cls-4{fill:#82bfab;}</style></defs><g id="Object"><path class="cls-1" d="M721.47,846.34c4.49-2.54,8.85-5.18,13.18-7.92l2.72-1.72q5.63-3.68,11.16-7.57l3.51-2.49c3.37-2.45,6.66-5,9.92-7.54,1.27-1,2.57-2,3.84-3q4.77-3.92,9.43-8l3.53-3c4.16-3.75,8.25-7.6,12.21-11.56A325.13,325.13,0,0,0,572.58,238.58V797.16l97.75,72.69,1.84-.62-.08-.05A326.46,326.46,0,0,0,720.3,847ZM666.64,657.21a83,83,0,0,1-23.31-25.27,109.17,109.17,0,0,1-12.88-34H608.16c-2.3,0-4.18-1.23-5.57-3.69s-2.1-6.58-2.1-12.34a62.82,62.82,0,0,1,.38-7.36,16.2,16.2,0,0,1,1.13-4.82l2.1-2.63a5.42,5.42,0,0,1,3.14-.86h20.64c0-1.89,0-3.85-.1-6s-.1-4.12-.1-6.13c0-2.5,0-5,.1-7.44s.1-4.8.1-7.06H607.24a5.32,5.32,0,0,1-5.1-3.49c-1.08-2.33-1.65-6.47-1.65-12.37a39.34,39.34,0,0,1,.59-7.56,14.61,14.61,0,0,1,1.65-4.78l2.43-2.58,3-.73h23.9A124.88,124.88,0,0,1,645.64,475a91.4,91.4,0,0,1,23-25.83q14-10.85,33.64-16.8t45.82-5.94a185.88,185.88,0,0,1,23.33,1.42,177.21,177.21,0,0,1,20.29,3.67,115.38,115.38,0,0,1,15,4.62,52.31,52.31,0,0,1,8.5,4.05,13.69,13.69,0,0,1,3.71,3.49,16.62,16.62,0,0,1,1.86,4.44,51,51,0,0,1,1.14,6.7,88.68,88.68,0,0,1,.47,9.9,59.61,59.61,0,0,1-.47,8.28,16.23,16.23,0,0,1-1.49,5.2,6.28,6.28,0,0,1-2.55,2.74,7.71,7.71,0,0,1-3.39.76,19.31,19.31,0,0,1-8.69-2.64c-3.33-1.77-7.43-3.7-12.31-5.75A117.08,117.08,0,0,0,776,467.65a99.4,99.4,0,0,0-23.9-2.54A79.35,79.35,0,0,0,729.32,468a50.34,50.34,0,0,0-16.86,8.58A45.81,45.81,0,0,0,701,490.19a67.38,67.38,0,0,0-6.73,17.92h63.56l3.16.73,2.41,2.58a16.42,16.42,0,0,1,1.51,4.78,39.34,39.34,0,0,1,.59,7.56c0,5.9-.71,10-2.1,12.37a6.25,6.25,0,0,1-5.57,3.49H689.62c-.16,2-.26,4-.34,6.1s-.11,4.38-.11,6.89c0,2.28,0,4.49.11,6.7s.18,4.48.34,6.89h68.22l3.16.86,2.41,2.63a16.42,16.42,0,0,1,1.51,4.82,37.61,37.61,0,0,1,.59,7.36c0,5.76-.71,9.89-2.1,12.34s-3.22,3.69-5.57,3.69H694a55.71,55.71,0,0,0,6.29,17.25A40.73,40.73,0,0,0,712,628.06a54,54,0,0,0,17.88,8.13A98.92,98.92,0,0,0,755.06,639a95.23,95.23,0,0,0,23.8-2.63,122.59,122.59,0,0,0,17.54-5.86q7.41-3.19,12.39-5.83c3.34-1.76,6.08-2.66,8.26-2.66a7.75,7.75,0,0,1,3.37.76A6.28,6.28,0,0,1,823,625.7a20.61,20.61,0,0,1,1.51,6.06,94.69,94.69,0,0,1,.45,10.27c0,5.53-.61,9.9-1.86,13.11a17.46,17.46,0,0,1-5.1,7.45,42.86,42.86,0,0,1-9.39,5.37,104.17,104.17,0,0,1-15.1,5.09,166.73,166.73,0,0,1-20.43,3.87,195.11,195.11,0,0,1-25.4,1.51q-26.24,0-46.43-5.48T666.64,657.21Z"/><path class="cls-1" d="M721.3,922.18,572.58,811.6v88.72H561A336.91,336.91,0,0,1,445,247.19l-51.21-38.07-1.94-2.31A394.66,394.66,0,0,0,549.7,958c3.27.1,6.51.24,9.8.24l-.33,82.1L561,1039v1.36Z"/><path class="cls-2" d="M456.3,255.6A325.22,325.22,0,0,0,561,888.73v-559l-.88.2a11.62,11.62,0,0,1-6.92-2.28Zm27,399.94c-13.94,9.17-30.41,15.09-49.29,17.91v21.91a12.88,12.88,0,0,1-12.86,12.87H397.49a12.87,12.87,0,0,1-12.86-12.87V673.48a125.26,125.26,0,0,1-57.58-24.64q-15.76-12-25.18-25.12a10.3,10.3,0,0,1-2.82-6.85q-.12-5.85,6.06-9.44l24.05-14.13.06,0s4.67-2.06,7.06-2.06a12.48,12.48,0,0,1,10.43,5.1q17.88,19.35,37.92,26.43V567.28q-46.41-7.15-67.13-34.86a62.75,62.75,0,0,1-12.72-37.5q-.79-43,46.77-64.79a119.22,119.22,0,0,1,33.08-9.29V396.5a12.87,12.87,0,0,1,12.86-12.88h23.62A12.88,12.88,0,0,1,434,396.5v25q39,6.76,63.72,34.91a9.5,9.5,0,0,1,3.47,7.48q-.09,5.31-5.51,8.76L469.2,489.22l-.08,0s-4.64,2.37-8,2.36a16.91,16.91,0,0,1-11-4A69.81,69.81,0,0,0,434,477v44.44q47.43,6.59,69.81,33.31,13.8,16.69,13.28,40.65Q516.29,633.8,483.26,655.54Z"/><path class="cls-2" d="M369.08,495.06q.09,14.22,15.55,20.14V475.82l-1.81.72Q369,483.14,369.08,495.06Z"/><path class="cls-2" d="M434,621.87a37.68,37.68,0,0,0,5.16-2.72q13.81-8.34,13.94-23.58c.07-10.94-6.34-18.34-19.1-22.37Z"/><path class="cls-3" d="M549.7,958l-.28,82.28a11.59,11.59,0,0,0,6.34,10.38,11.4,11.4,0,0,0,5.25,1.25,11.57,11.57,0,0,0,6.88-2.26L728.18,931.51a11.61,11.61,0,0,0,0-18.64l-57.87-43-97.75-72.69V238.58c-3.45-.12-6.94-.25-10.43-.26l-.26,80-1.76-1.3v1.3L400.68,199.81,561,81.71,561,83l1.73-1.28-.3,87.09c3.29,0,6.57.16,9.84.25l.32-87.3a11.59,11.59,0,0,0-18.47-9.37L393.82,190.49a11.55,11.55,0,0,0-4.7,9.31,11.41,11.41,0,0,0,2.72,7l1.94,2.31L445,247.19A336.87,336.87,0,0,0,561,900.32h11.59V811.6L721.3,922.18,561,1040.31V1039l-1.84,1.36.33-82.1C556.21,958.21,553,958.07,549.7,958ZM561,888.73A325.22,325.22,0,0,1,456.3,255.6l96.91,72.06a11.62,11.62,0,0,0,6.92,2.28l.88-.2Z"/><path class="cls-4" d="M397.49,708.23h23.62A12.88,12.88,0,0,0,434,695.36V673.45c18.88-2.82,35.35-8.74,49.29-17.91q33-21.79,33.8-60.11.5-23.92-13.28-40.65Q481.4,528.11,434,521.47V477a69.81,69.81,0,0,1,16.1,10.58,16.91,16.91,0,0,0,11,4c3.4,0,8-2.36,8-2.36l.08,0,26.45-16.56q5.43-3.45,5.51-8.76a9.5,9.5,0,0,0-3.47-7.48Q473,428.3,434,421.51v-25a12.88,12.88,0,0,0-12.86-12.88H397.49a12.87,12.87,0,0,0-12.86,12.88v24.34a119.22,119.22,0,0,0-33.08,9.29Q304,451.8,304.78,494.92a62.75,62.75,0,0,0,12.72,37.5q20.7,27.75,67.13,34.86v55.46q-20.06-7.11-37.92-26.43a12.48,12.48,0,0,0-10.43-5.1c-2.39,0-7.06,2.06-7.06,2.06l-.06,0-24.05,14.13q-6.18,3.59-6.06,9.44a10.3,10.3,0,0,0,2.82,6.85q9.39,13.1,25.18,25.12a125.26,125.26,0,0,0,57.58,24.64v21.88A12.87,12.87,0,0,0,397.49,708.23ZM434,573.2c12.76,4,19.17,11.43,19.1,22.37q-.12,15.24-13.94,23.58a37.68,37.68,0,0,1-5.16,2.72Zm-64.89-78.14q-.09-11.91,13.74-18.52l1.81-.72V515.2Q369.18,509.26,369.08,495.06Z"/><path class="cls-3" d="M604.1,567.06l-2.1,2.63a16.2,16.2,0,0,0-1.13,4.82,62.82,62.82,0,0,0-.38,7.36c0,5.76.69,9.89,2.1,12.34s3.27,3.69,5.57,3.69h22.29a109.17,109.17,0,0,0,12.88,34,83,83,0,0,0,23.31,25.27Q681.06,667.5,701.22,673t46.43,5.48a195.11,195.11,0,0,0,25.4-1.51,166.73,166.73,0,0,0,20.43-3.87,104.17,104.17,0,0,0,15.1-5.09,42.86,42.86,0,0,0,9.39-5.37,17.46,17.46,0,0,0,5.1-7.45c1.25-3.21,1.86-7.58,1.86-13.11a94.69,94.69,0,0,0-.45-10.27A20.61,20.61,0,0,0,823,625.7a6.28,6.28,0,0,0-2.55-2.92,7.75,7.75,0,0,0-3.37-.76c-2.18,0-4.92.9-8.26,2.66s-7.45,3.7-12.39,5.83a122.59,122.59,0,0,1-17.54,5.86,95.23,95.23,0,0,1-23.8,2.63,98.92,98.92,0,0,1-25.16-2.81A54,54,0,0,1,712,628.06a40.73,40.73,0,0,1-11.7-12.91A55.71,55.71,0,0,1,694,597.9h63.81c2.35,0,4.2-1.23,5.57-3.69s2.1-6.58,2.1-12.34a37.61,37.61,0,0,0-.59-7.36,16.42,16.42,0,0,0-1.51-4.82L761,567.06l-3.16-.86H689.62c-.16-2.41-.26-4.7-.34-6.89s-.11-4.42-.11-6.7c0-2.51,0-4.8.11-6.89s.18-4.11.34-6.1h68.22a6.25,6.25,0,0,0,5.57-3.49c1.39-2.33,2.1-6.47,2.1-12.37a39.34,39.34,0,0,0-.59-7.56,16.42,16.42,0,0,0-1.51-4.78L761,508.84l-3.16-.73H694.28A67.38,67.38,0,0,1,701,490.19a45.81,45.81,0,0,1,11.45-13.59A50.34,50.34,0,0,1,729.32,468a79.35,79.35,0,0,1,22.74-2.91,99.4,99.4,0,0,1,23.9,2.54,117.08,117.08,0,0,1,17.52,5.67c4.88,2.05,9,4,12.31,5.75a19.31,19.31,0,0,0,8.69,2.64,7.71,7.71,0,0,0,3.39-.76,6.28,6.28,0,0,0,2.55-2.74,16.23,16.23,0,0,0,1.49-5.2,59.61,59.61,0,0,0,.47-8.28,88.68,88.68,0,0,0-.47-9.9,51,51,0,0,0-1.14-6.7,16.62,16.62,0,0,0-1.86-4.44,13.69,13.69,0,0,0-3.71-3.49,52.31,52.31,0,0,0-8.5-4.05,115.38,115.38,0,0,0-15-4.62,177.21,177.21,0,0,0-20.29-3.67,185.88,185.88,0,0,0-23.33-1.42q-26.21,0-45.82,5.94t-33.64,16.8a91.4,91.4,0,0,0-23,25.83,124.88,124.88,0,0,0-13.58,33.1h-23.9l-3,.73-2.43,2.58a14.61,14.61,0,0,0-1.65,4.78,39.34,39.34,0,0,0-.59,7.56c0,5.9.57,10,1.65,12.37a5.32,5.32,0,0,0,5.1,3.49h20.64c0,2.26,0,4.6-.1,7.06s-.1,4.94-.1,7.44c0,2,0,4.06.1,6.13s.1,4.06.1,6H607.24A5.42,5.42,0,0,0,604.1,567.06Z"/><path class="cls-2" d="M778.76,805l-3.53,3q-4.65,4.09-9.43,8c-1.27,1-2.57,2-3.84,3-3.26,2.56-6.55,5.09-9.92,7.54l-3.51,2.49Q743,833,737.37,836.7l-2.72,1.72c-4.33,2.74-8.69,5.38-13.18,7.92l-1.17.68a326.46,326.46,0,0,1-48.21,22.16l.08.05,64.15,47.94A394.65,394.65,0,0,0,572.26,169.05c-3.27-.09-6.55-.24-9.84-.25l.3-87.09L561,83l0-1.28L400.68,199.81,560.13,318.36v-1.3l1.76,1.3.26-80c3.49,0,7,.14,10.43.26A325.15,325.15,0,0,1,791,793.47C787,797.43,782.92,801.28,778.76,805Z"/></g></svg>